<svg width="28" height="28" viewBox="0 0 28 28" fill="none" xmlns="http://www.w3.org/2000/svg">
<path d="M14.0002 7.5835C14.7737 7.5835 15.5156 7.89079 16.0626 8.43777C16.6095 8.98475 16.9168 9.72662 16.9168 10.5002C16.9168 10.8832 16.8414 11.2625 16.6948 11.6163C16.5482 11.9702 16.3334 12.2917 16.0626 12.5626C15.7917 12.8334 15.4702 13.0482 15.1163 13.1948C14.7625 13.3414 14.3832 13.4168 14.0002 13.4168C13.2266 13.4168 12.4847 13.1095 11.9378 12.5626C11.3908 12.0156 11.0835 11.2737 11.0835 10.5002C11.0835 9.72662 11.3908 8.98475 11.9378 8.43777C12.4847 7.89079 13.2266 7.5835 14.0002 7.5835ZM14.0002 2.3335C16.1661 2.3335 18.2433 3.19391 19.7749 4.72546C21.3064 6.257 22.1668 8.33423 22.1668 10.5002C22.1668 16.6252 14.0002 25.6668 14.0002 25.6668C14.0002 25.6668 5.8335 16.6252 5.8335 10.5002C5.8335 8.33423 6.69391 6.257 8.22546 4.72546C9.757 3.19391 11.8342 2.3335 14.0002 2.3335ZM14.0002 4.66683C12.4531 4.66683 10.9693 5.28141 9.87537 6.37537C8.78141 7.46934 8.16683 8.95307 8.16683 10.5002C8.16683 11.6668 8.16683 14.0002 14.0002 21.8285C19.8335 14.0002 19.8335 11.6668 19.8335 10.5002C19.8335 8.95307 19.2189 7.46934 18.125 6.37537C17.031 5.28141 15.5473 4.66683 14.0002 4.66683Z" fill="white"/>
</svg>
