<svg width="28" height="28" viewBox="0 0 28 28" fill="none" xmlns="http://www.w3.org/2000/svg">
<path d="M14.0466 2.3335C7.6766 2.3335 2.48494 7.52516 2.48494 13.8952C2.48494 15.9368 3.0216 17.9202 4.02494 19.6702L2.3916 25.6668L8.5166 24.0568C10.2083 24.9785 12.1099 25.4685 14.0466 25.4685C20.4166 25.4685 25.6083 20.2768 25.6083 13.9068C25.6083 10.8152 24.4066 7.91016 22.2249 5.7285C20.0433 3.53516 17.1383 2.3335 14.0466 2.3335ZM14.0583 4.28183C16.6249 4.28183 19.0283 5.28516 20.8483 7.10516C22.6566 8.92516 23.6599 11.3402 23.6599 13.9068C23.6599 19.2035 19.3433 23.5085 14.0466 23.5085C12.3199 23.5085 10.6283 23.0535 9.15827 22.1668L8.80827 21.9685L5.16827 22.9252L6.1366 19.3785L5.90327 19.0052C4.9466 17.5002 4.43327 15.7152 4.43327 13.8952C4.44494 8.5985 8.74994 4.28183 14.0583 4.28183ZM9.9516 8.55183C9.76493 8.55183 9.44994 8.62183 9.1816 8.9135C8.92493 9.20516 8.1666 9.91683 8.1666 11.3285C8.1666 12.7518 9.20494 14.1168 9.33327 14.3152C9.4966 14.5135 11.3866 17.4302 14.2916 18.6668C14.9799 18.9818 15.5166 19.1568 15.9366 19.2852C16.6249 19.5068 17.2549 19.4718 17.7566 19.4018C18.3166 19.3202 19.4599 18.7018 19.7049 18.0252C19.9499 17.3485 19.9499 16.7768 19.8799 16.6485C19.7983 16.5318 19.6116 16.4618 19.3199 16.3335C19.0283 16.1702 17.6049 15.4702 17.3483 15.3768C17.0799 15.2835 16.9166 15.2368 16.6949 15.5168C16.5083 15.8085 15.9483 16.4618 15.7849 16.6485C15.6099 16.8468 15.4466 16.8702 15.1666 16.7302C14.8633 16.5785 13.9299 16.2752 12.8333 15.2952C11.9699 14.5252 11.3983 13.5802 11.2233 13.2885C11.0833 13.0085 11.2116 12.8335 11.3516 12.7052C11.4799 12.5768 11.6666 12.3668 11.7833 12.1918C11.9349 12.0285 11.9816 11.9002 12.0749 11.7135C12.1683 11.5152 12.1216 11.3518 12.0516 11.2118C11.9816 11.0835 11.3983 9.63683 11.1533 9.06516C10.9199 8.50516 10.6866 8.57516 10.4999 8.5635C10.3366 8.5635 10.1499 8.55183 9.9516 8.55183Z" fill="white"/>
</svg>
