<?xml version="1.0" encoding="utf-8"?>
<!-- Generator: Adobe Illustrator 26.1.0, SVG Export Plug-In . SVG Version: 6.00 Build 0)  -->
<svg version="1.1" id="a" xmlns="http://www.w3.org/2000/svg" xmlns:xlink="http://www.w3.org/1999/xlink" x="0px" y="0px"
	 viewBox="0 0 512 512" style="enable-background:new 0 0 512 512;" xml:space="preserve">
<style type="text/css">
	.st0{fill:url(#SVGID_1_);}
	.st1{fill:url(#SVGID_00000120552276733118703440000013628043963892313736_);}
	.st2{fill:#F0F0F0;}
	.st3{fill:#D4D4D4;}
	.st4{fill:#EF487D;}
	.st5{fill:#FF668C;}
	.st6{fill:#F2AE5A;}
	.st7{fill:#F9DF73;}
	.st8{opacity:0.25;}
	.st9{fill:#484B7F;}
	.st10{opacity:0.25;fill:#EF487D;enable-background:new    ;}
</style>
<linearGradient id="SVGID_1_" gradientUnits="userSpaceOnUse" x1="0" y1="256" x2="512" y2="256">
	<stop  offset="0" style="stop-color:#F8C549"/>
	<stop  offset="0.1065" style="stop-color:#F2BA54"/>
	<stop  offset="0.2964" style="stop-color:#E29B70"/>
	<stop  offset="0.5477" style="stop-color:#C8699E"/>
	<stop  offset="0.8475" style="stop-color:#A425DD"/>
	<stop  offset="1" style="stop-color:#9000FF"/>
</linearGradient>
<path class="st0" d="M512,256c0,50.9-14.9,98.4-40.5,138.2C426,465.1,346.5,512,256,512S86,465.1,40.5,394.2
	C14.9,354.4,0,306.9,0,256s14.9-98.4,40.5-138.2C69,73.5,110.7,38.5,160.1,18.6C189.7,6.6,222.1,0,256,0s66.3,6.6,95.9,18.6
	c49.4,20,91.2,54.9,119.6,99.2C497.1,157.6,512,205.1,512,256z"/>
<linearGradient id="SVGID_00000031903204418201036980000014906765451801026486_" gradientUnits="userSpaceOnUse" x1="41.7" y1="214.3" x2="470.3" y2="214.3">
	<stop  offset="0" style="stop-color:#F8C549"/>
	<stop  offset="0.1065" style="stop-color:#F2BA54"/>
	<stop  offset="0.2964" style="stop-color:#E29B70"/>
	<stop  offset="0.5477" style="stop-color:#C8699E"/>
	<stop  offset="0.8475" style="stop-color:#A425DD"/>
	<stop  offset="1" style="stop-color:#9000FF"/>
</linearGradient>
<path style="fill:url(#SVGID_00000031903204418201036980000014906765451801026486_);" d="M470.3,214.3c0,42.6-12.4,82.4-33.9,115.7
	c-38.1,59.3-104.7,98.6-180.4,98.6S113.7,389.3,75.6,330c-21.5-33.4-33.9-73.1-33.9-115.7S54.1,132,75.6,98.6
	c23.8-37.1,58.8-66.3,100.2-83.1C200.5,5.5,227.6,0,256,0s55.5,5.5,80.3,15.5c41.4,16.7,76.3,46,100.2,83.1
	C457.9,132,470.3,171.7,470.3,214.3L470.3,214.3z"/>
<path class="st2" d="M471.5,74.3v319.9C426,465.1,346.5,512,256,512c-45.6,0-88.4-11.9-125.4-32.8c-18.9-10.6-36.2-23.5-51.7-38.4
	c-14.5-13.9-27.4-29.5-38.3-46.5v-320c0-22.1,16.8-40.1,37.6-40.1H434C454.7,34.2,471.5,52.2,471.5,74.3z"/>
<rect x="40.5" y="141.3" class="st3" width="431" height="36.2"/>
<path class="st4" d="M471.5,71.8v80.3h-431V71.8c0-20.8,16.8-37.6,37.6-37.6h355.8C454.7,34.2,471.5,51.1,471.5,71.8z"/>
<path class="st5" d="M471.5,90.6v61.5h-431V90.6C40.5,69.9,57.3,53,78.1,53h355.8C454.7,53,471.5,69.9,471.5,90.6z"/>
<path class="st6" d="M171.4,23v39.6c0,9.6-5.9,17.8-14.3,21.3c-2.7,1.1-5.6,1.7-8.7,1.7c-12.7,0-23-10.3-23-23V23
	c0-12.7,10.3-23,23-23c3.1,0,6,0.6,8.7,1.7c2.9,1.2,5.4,2.9,7.6,5C168.8,10.9,171.4,16.6,171.4,23z"/>
<path class="st7" d="M171.4,23v39.6c0,9.6-5.9,17.8-14.3,21.3c-8.4-3.4-14.3-11.7-14.3-21.3V23c0-9.6,5.9-17.8,14.3-21.3
	c2.9,1.2,5.4,2.9,7.6,5C168.8,10.9,171.4,16.6,171.4,23z"/>
<path class="st6" d="M386.6,23v39.6c0,9.6-5.9,17.8-14.3,21.3c-2.7,1.1-5.6,1.7-8.7,1.7c-12.7,0-23-10.3-23-23V23
	c0-12.7,10.3-23,23-23c3.1,0,6,0.6,8.7,1.7c2.9,1.2,5.4,2.9,7.6,5C384,10.9,386.6,16.6,386.6,23L386.6,23z"/>
<path class="st7" d="M386.6,23v39.6c0,9.6-5.9,17.8-14.3,21.3c-8.4-3.4-14.3-11.7-14.3-21.3V23c0-9.6,5.9-17.8,14.3-21.3
	c2.9,1.2,5.4,2.9,7.6,5C384,10.9,386.6,16.6,386.6,23L386.6,23z"/>
<g class="st8">
	<path class="st9" d="M268,264.7h-24c-8.9,0-16.1-7.2-16.1-16.1v-23.9c0-8.9,7.2-16.1,16.1-16.1h24c8.9,0,16.1,7.2,16.1,16.1v23.9
		C284.1,257.5,276.9,264.7,268,264.7z"/>
	<path class="st9" d="M342.8,264.7h-23.9c-8.9,0-16.1-7.2-16.1-16.1v-23.9c0-8.9,7.2-16.1,16.1-16.1h23.9c8.9,0,16.1,7.2,16.1,16.1
		v23.9C358.9,257.5,351.7,264.7,342.8,264.7z"/>
</g>
<path class="st10" d="M417.6,264.7h-23.9c-8.9,0-16.1-7.2-16.1-16.1v-23.9c0-8.9,7.2-16.1,16.1-16.1h23.9c8.9,0,16.1,7.2,16.1,16.1
	v23.9C433.7,257.5,426.5,264.7,417.6,264.7z"/>
<g class="st8">
	<path class="st9" d="M118.4,338.1h-24c-8.9,0-16.1-7.2-16.1-16.1v-24c0-8.9,7.2-16.1,16.1-16.1h23.9c8.9,0,16.1,7.2,16.1,16.1v23.9
		C134.5,330.8,127.3,338.1,118.4,338.1z"/>
	<path class="st9" d="M193.2,338.1h-23.9c-8.9,0-16.1-7.2-16.1-16.1v-24c0-8.9,7.2-16.1,16.1-16.1h23.9c8.9,0,16.1,7.2,16.1,16.1
		v23.9C209.3,330.8,202.1,338.1,193.2,338.1z"/>
	<path class="st9" d="M268,338.1h-24c-8.9,0-16.1-7.2-16.1-16.1v-24c0-8.9,7.2-16.1,16.1-16.1h24c8.9,0,16.1,7.2,16.1,16.1v23.9
		C284.1,330.8,276.9,338.1,268,338.1z"/>
	<path class="st9" d="M342.8,338.1h-23.9c-8.9,0-16.1-7.2-16.1-16.1v-24c0-8.9,7.2-16.1,16.1-16.1h23.9c8.9,0,16.1,7.2,16.1,16.1
		v23.9C358.9,330.8,351.7,338.1,342.8,338.1z"/>
</g>
<path class="st10" d="M417.6,338.1h-23.9c-8.9,0-16.1-7.2-16.1-16.1v-24c0-8.9,7.2-16.1,16.1-16.1h23.9c8.9,0,16.1,7.2,16.1,16.1
	v23.9C433.7,330.8,426.5,338.1,417.6,338.1z"/>
<g class="st8">
	<path class="st9" d="M118.4,411.4h-24c-8.9,0-16.1-7.2-16.1-16.1v-23.9c0-8.9,7.2-16.1,16.1-16.1h23.9c8.9,0,16.1,7.2,16.1,16.1
		v23.9C134.5,404.2,127.3,411.4,118.4,411.4z"/>
	<path class="st9" d="M193.2,411.4h-23.9c-8.9,0-16.1-7.2-16.1-16.1v-23.9c0-8.9,7.2-16.1,16.1-16.1h23.9c8.9,0,16.1,7.2,16.1,16.1
		v23.9C209.3,404.2,202.1,411.4,193.2,411.4z"/>
	<path class="st9" d="M268,411.4h-24c-8.9,0-16.1-7.2-16.1-16.1v-23.9c0-8.9,7.2-16.1,16.1-16.1h24c8.9,0,16.1,7.2,16.1,16.1v23.9
		C284.1,404.2,276.9,411.4,268,411.4z"/>
	<path class="st9" d="M342.8,411.4h-23.9c-8.9,0-16.1-7.2-16.1-16.1v-23.9c0-8.9,7.2-16.1,16.1-16.1h23.9c8.9,0,16.1,7.2,16.1,16.1
		v23.9C358.9,404.2,351.7,411.4,342.8,411.4z"/>
</g>
<path class="st10" d="M417.6,411.4h-23.9c-8.9,0-16.1-7.2-16.1-16.1v-23.9c0-8.9,7.2-16.1,16.1-16.1h23.9c8.9,0,16.1,7.2,16.1,16.1
	v23.9C433.7,404.2,426.5,411.4,417.6,411.4z"/>
<g class="st8">
	<path class="st9" d="M134.5,444.7v23.9c0,4-1.5,7.7-3.9,10.5c-18.9-10.6-36.2-23.5-51.7-38.4c1.8-7,8.1-12.1,15.6-12.1h23.9
		C127.3,428.6,134.5,435.8,134.5,444.7L134.5,444.7z"/>
	<path class="st9" d="M193.2,484.8h-23.9c-8.9,0-16.1-7.2-16.1-16.1v-23.9c0-8.9,7.2-16.1,16.1-16.1h23.9c8.9,0,16.1,7.2,16.1,16.1
		v23.9C209.3,477.6,202.1,484.8,193.2,484.8z"/>
	<path class="st9" d="M268,484.8h-24c-8.9,0-16.1-7.2-16.1-16.1v-23.9c0-8.9,7.2-16.1,16.1-16.1h24c8.9,0,16.1,7.2,16.1,16.1v23.9
		C284.1,477.6,276.9,484.8,268,484.8z"/>
</g>
</svg>
