<?xml version="1.0" encoding="utf-8"?>
<!-- Generator: Adobe Illustrator 26.1.0, SVG Export Plug-In . SVG Version: 6.00 Build 0)  -->
<svg version="1.1" id="圖層_1" xmlns="http://www.w3.org/2000/svg" xmlns:xlink="http://www.w3.org/1999/xlink" x="0px" y="0px"
	 viewBox="0 0 160 160" style="enable-background:new 0 0 160 160;" xml:space="preserve">
<style type="text/css">
	.st0{fill:url(#SVGID_1_);}
	.st1{fill:url(#SVGID_00000103979070333086971000000000017506056208679583_);}
</style>
<linearGradient id="SVGID_1_" gradientUnits="userSpaceOnUse" x1="52.6314" y1="6.804" x2="107.3686" y2="157.196" gradientTransform="matrix(1 0 0 -1 0 162)">
	<stop  offset="0" style="stop-color:#F8C549"/>
	<stop  offset="0.1049" style="stop-color:#F4BE4F"/>
	<stop  offset="0.2576" style="stop-color:#EAAB61"/>
	<stop  offset="0.4397" style="stop-color:#D98B7F"/>
	<stop  offset="0.6443" style="stop-color:#C25EA8"/>
	<stop  offset="0.8651" style="stop-color:#A426DC"/>
	<stop  offset="1" style="stop-color:#9000FF"/>
</linearGradient>
<path class="st0" d="M80,0L80,0c44.2,0,80,35.8,80,80l0,0c0,44.2-35.8,80-80,80l0,0c-44.2,0-80-35.8-80-80l0,0C0,35.8,35.8,0,80,0z"
	/>
<radialGradient id="SVGID_00000007388572234114664890000001590891181488039305_" cx="43.5888" cy="235.2203" r="47.3253" gradientTransform="matrix(0.99 0 0 -1.5 13.28 432.78)" gradientUnits="userSpaceOnUse">
	<stop  offset="0" style="stop-color:#FFFFFF;stop-opacity:0.6"/>
	<stop  offset="0.2" style="stop-color:#FFFFFF;stop-opacity:0.74"/>
	<stop  offset="0.4" style="stop-color:#FFFFFF;stop-opacity:0.85"/>
	<stop  offset="0.61" style="stop-color:#FFFFFF;stop-opacity:0.93"/>
	<stop  offset="0.81" style="stop-color:#FFFFFF;stop-opacity:0.98"/>
	<stop  offset="1" style="stop-color:#FFFFFF"/>
</radialGradient>
<path style="fill:url(#SVGID_00000007388572234114664890000001590891181488039305_);" d="M115,75.9L59.1,42.8c-2.2-1.1-5-0.2-6.1,2
	c-0.3,0.6-0.5,1.3-0.5,2v66.4c0,2.5,2.1,4.5,4.6,4.5c0.7,0,1.4-0.2,2-0.5L115,84.1c2.2-1.1,3.1-3.9,2-6.1
	C116.6,77.1,115.9,76.4,115,75.9z"/>
</svg>
