<svg width="40" height="40" viewBox="0 0 40 40" fill="none" xmlns="http://www.w3.org/2000/svg">
<g clip-path="url(#clip0_248_3486)">
<path d="M28.6664 7C27.8093 7 26.9714 7.25416 26.2588 7.73034C25.5461 8.20653 24.9907 8.88334 24.6627 9.67521C24.3347 10.4671 24.2488 11.3384 24.4161 12.179C24.5833 13.0197 24.996 13.7919 25.6021 14.3979C26.2081 15.004 26.9803 15.4167 27.821 15.5839C28.6616 15.7512 29.5329 15.6653 30.3248 15.3373C31.1167 15.0093 31.7935 14.4539 32.2697 13.7412C32.7458 13.0286 33 12.1907 33 11.3336C33 10.1843 32.5434 9.08199 31.7307 8.26928C30.918 7.45657 29.8157 7 28.6664 7ZM28.6664 24.3328C27.8092 24.3328 26.9713 24.587 26.2586 25.0632C25.5459 25.5395 24.9905 26.2164 24.6625 27.0084C24.3346 27.8003 24.2488 28.6718 24.4162 29.5124C24.5835 30.3531 24.9964 31.1253 25.6027 31.7313C26.2089 32.3373 26.9812 32.7499 27.8219 32.9169C28.6627 33.084 29.5341 32.9979 30.3259 32.6697C31.1178 32.3414 31.7945 31.7857 32.2704 31.0728C32.7464 30.36 33.0003 29.5219 33 28.6648C32.9996 27.5157 32.5428 26.4139 31.7301 25.6015C30.9175 24.7891 29.8155 24.3328 28.6664 24.3328ZM11.3352 15.6656C10.4781 15.6653 9.64004 15.9191 8.92717 16.3951C8.2143 16.8711 7.65859 17.5478 7.33034 18.3397C7.0021 19.1315 6.91604 20.0029 7.08307 20.8436C7.2501 21.6844 7.66271 22.4567 8.26871 23.0629C8.87471 23.6692 9.64688 24.0821 10.4876 24.2494C11.3282 24.4167 12.1997 24.331 12.9916 24.0031C13.7836 23.6751 14.4605 23.1197 14.9368 22.407C15.413 21.6943 15.6672 20.8564 15.6672 19.9992C15.6672 18.8501 15.2109 17.7481 14.3985 16.9354C13.5861 16.1228 12.4843 15.666 11.3352 15.6656Z" fill="#646464"/>
<path d="M29 11L11 20L29 29" stroke="#646464" stroke-width="1.24969" stroke-miterlimit="10"/>
</g>
<defs>
<clipPath id="clip0_248_3486">
<rect width="40" height="40" fill="white"/>
</clipPath>
</defs>
</svg>
