<?xml version="1.0" encoding="utf-8"?>
<!-- Generator: Adobe Illustrator 26.1.0, SVG Export Plug-In . SVG Version: 6.00 Build 0)  -->
<svg version="1.1" id="圖層_1" xmlns="http://www.w3.org/2000/svg" xmlns:xlink="http://www.w3.org/1999/xlink" x="0px" y="0px"
	 viewBox="0 0 240 240" style="enable-background:new 0 0 240 240;" xml:space="preserve">
<style type="text/css">
	.st0{fill:#0288D1;}
	.st1{fill:#FFFFFF;}
</style>
<g>
	<path class="st0" d="M240,206.7c0,18.4-14.9,33.3-33.3,33.3H33.3C14.9,240,0,225.1,0,206.7V33.3C0,14.9,14.9,0,33.3,0h173.3
		C225.1,0,240,14.9,240,33.3V206.7z"/>
	<path class="st1" d="M40,86.7h33.3V200H40V86.7z M56.6,73.3h-0.2c-9.9,0-16.4-7.4-16.4-16.7C40,47.2,46.6,40,56.8,40
		c10.1,0,16.4,7.2,16.6,16.7C73.3,65.9,66.9,73.3,56.6,73.3z M200,200h-33.3v-60.7c0-14.7-8.2-24.7-21.3-24.7
		c-10,0-15.4,6.7-18,13.3c-1,2.3-0.7,8.8-0.7,12v60H93.3V86.7h33.3v17.4c4.8-7.4,12.3-17.4,31.6-17.4c23.9,0,41.7,15,41.7,48.5
		L200,200L200,200z"/>
</g>
</svg>
