<svg width="30" height="30" viewBox="0 0 30 30" fill="none" xmlns="http://www.w3.org/2000/svg">
<g clip-path="url(#clip0_450_84)">
<mask id="mask0_450_84" style="mask-type:luminance" maskUnits="userSpaceOnUse" x="0" y="0" width="30" height="30">
<path d="M30 0H0V30H30V0Z" fill="white"/>
</mask>
<g mask="url(#mask0_450_84)">
<path d="M0 15C0 11.0218 1.58035 7.20645 4.39341 4.39341C7.20645 1.58035 11.0218 0 15 0C18.9782 0 22.7936 1.58035 25.6067 4.39341C28.4196 7.20645 30 11.0218 30 15C30 18.9782 28.4196 22.7936 25.6067 25.6067C22.7936 28.4196 18.9782 30 15 30C11.0218 30 7.20645 28.4196 4.39341 25.6067C1.58035 22.7936 0 18.9782 0 15ZM14.0625 2.01938C12.8062 2.40188 11.5594 3.55687 10.5244 5.4975C10.1834 6.14269 9.89008 6.81197 9.64688 7.5H14.0625V2.01938ZM7.66875 7.5C7.98126 6.50404 8.38288 5.53824 8.86875 4.61438C9.19296 4.00136 9.56736 3.41623 9.98812 2.865C7.665 3.82843 5.66627 5.43679 4.22813 7.5H7.66875ZM6.5775 14.0625C6.63375 12.4181 6.83625 10.8413 7.1625 9.375H3.13875C2.4396 10.847 2.02239 12.4369 1.90875 14.0625H6.5775ZM9.08813 9.375C8.71935 10.9121 8.50701 12.4826 8.45437 14.0625H14.0625V9.375H9.08813ZM15.9375 9.375V14.0625H21.5437C21.4918 12.4827 21.2801 10.9122 20.9119 9.375H15.9375ZM8.45625 15.9375C8.50826 17.5173 8.71997 19.0879 9.08813 20.625H14.0625V15.9375H8.45625ZM15.9375 15.9375V20.625H20.9119C21.2625 19.1906 21.4856 17.61 21.5456 15.9375H15.9375ZM9.64688 22.5C9.90563 23.2237 10.2 23.895 10.5244 24.5025C11.5594 26.4431 12.8081 27.5963 14.0625 27.9806V22.5H9.64688ZM9.98812 27.135C9.56732 26.5837 9.19292 25.9987 8.86875 25.3856C8.3829 24.4618 7.98128 23.496 7.66875 22.5H4.22813C5.66618 24.5632 7.66494 26.1716 9.98812 27.135ZM7.1625 20.625C6.82342 19.0839 6.6276 17.5147 6.5775 15.9375H1.90875C2.025 17.6063 2.45438 19.1869 3.13875 20.625H7.1625ZM20.0119 27.135C22.335 26.1716 24.3337 24.5632 25.7719 22.5H22.3312C22.0187 23.496 21.6171 24.4618 21.1313 25.3856C20.8071 25.9987 20.4328 26.5837 20.0119 27.135ZM15.9375 22.5V27.9806C17.1938 27.5981 18.4406 26.4431 19.4756 24.5025C19.8 23.895 20.0944 23.2237 20.3531 22.5H15.9375ZM22.8375 20.625H26.8612C27.5456 19.1869 27.975 17.6063 28.0913 15.9375H23.4225C23.3724 17.5147 23.1765 19.0839 22.8375 20.625ZM28.0913 14.0625C27.9776 12.4369 27.5604 10.847 26.8612 9.375H22.8375C23.1637 10.8413 23.3662 12.4181 23.4225 14.0625H28.0913ZM21.1313 4.61438C21.5944 5.48438 21.9975 6.45187 22.3312 7.5H25.7719C24.3337 5.43671 22.335 3.82834 20.0119 2.865C20.4206 3.3975 20.7956 3.98625 21.1313 4.61438ZM20.3531 7.5C20.1099 6.81197 19.8167 6.14267 19.4756 5.4975C18.4406 3.55687 17.1938 2.40375 15.9375 2.01938V7.5H20.3531Z" fill="white"/>
</g>
</g>
<defs>
<clipPath id="clip0_450_84">
<rect width="30" height="30" fill="white"/>
</clipPath>
</defs>
</svg>
