<svg width="40" height="40" viewBox="0 0 40 40" fill="none" xmlns="http://www.w3.org/2000/svg">
<path d="M9.5332 12.5C9.67666 12.5 9.81879 12.5281 9.95117 12.583C10.0838 12.6381 10.2046 12.7197 10.3057 12.8213L10.3086 12.8242C10.4103 12.9249 10.4909 13.045 10.5459 13.1768C10.6009 13.3086 10.6299 13.4501 10.6299 13.5928C10.6298 13.7355 10.601 13.8769 10.5459 14.0088C10.4908 14.1406 10.4104 14.2606 10.3086 14.3613L10.3076 14.3623L3.48145 21.1543L3.12598 21.5088L3.48145 21.8633L10.3076 28.6562L10.3086 28.6572C10.4104 28.758 10.4908 28.8779 10.5459 29.0098C10.601 29.1417 10.6299 29.283 10.6299 29.4258C10.6299 29.5686 10.601 29.7099 10.5459 29.8418C10.4908 29.9736 10.4103 30.0936 10.3086 30.1943L10.3057 30.1973C10.2046 30.2989 10.0838 30.3795 9.95117 30.4346C9.81871 30.4896 9.67677 30.5185 9.5332 30.5186C9.38949 30.5186 9.24685 30.4897 9.11426 30.4346C8.98178 30.3795 8.8617 30.2988 8.76074 30.1973L8.75879 30.1963L0.822266 22.2793L0.821289 22.2783L0.749023 22.1992C0.680675 22.1168 0.624378 22.0248 0.583008 21.9258C0.527909 21.7939 0.5 21.6516 0.5 21.5088C0.500052 21.3661 0.527959 21.2246 0.583008 21.0928C0.638107 20.9609 0.719438 20.841 0.821289 20.7402L0.822266 20.7393L8.75879 12.8223L8.76074 12.8213C8.86176 12.7197 8.98167 12.6381 9.11426 12.583C9.24685 12.5279 9.38949 12.5 9.5332 12.5ZM30.4668 12.5029C30.6106 12.5029 30.753 12.5311 30.8857 12.5859C31.0185 12.6408 31.1397 12.721 31.2412 12.8223L39.1777 20.7393L39.1787 20.7402C39.2806 20.841 39.3619 20.9609 39.417 21.0928C39.472 21.2246 39.4999 21.3661 39.5 21.5088C39.5 21.6516 39.4721 21.7939 39.417 21.9258C39.3619 22.0576 39.2805 22.1776 39.1787 22.2783L39.1777 22.2793L31.2412 30.1963L31.2393 30.1973C31.1383 30.2988 31.0182 30.3795 30.8857 30.4346C30.7532 30.4897 30.6105 30.5186 30.4668 30.5186C30.3232 30.5185 30.1813 30.4896 30.0488 30.4346C29.9162 30.3795 29.7954 30.2989 29.6943 30.1973L29.6914 30.1943C29.5897 30.0936 29.5092 29.9736 29.4541 29.8418C29.399 29.7099 29.3701 29.5686 29.3701 29.4258C29.3701 29.283 29.399 29.1417 29.4541 29.0098C29.5092 28.8779 29.5896 28.758 29.6914 28.6572L29.6924 28.6562L36.5186 21.8633L36.874 21.5088L36.5186 21.1543L29.6924 14.3623H29.6934C29.4885 14.1579 29.3731 13.8813 29.373 13.5928C29.373 13.4498 29.4012 13.3079 29.4561 13.1758C29.5109 13.0436 29.5919 12.9235 29.6934 12.8223C29.8983 12.6179 30.1764 12.503 30.4668 12.5029Z" fill="white" stroke="white"/>
<path d="M23 10L16.7883 33.1822" stroke="white" stroke-width="3" stroke-linecap="round"/>
</svg>
