<svg width="40" height="40" viewBox="0 0 40 40" fill="none" xmlns="http://www.w3.org/2000/svg">
<path d="M26.3665 33.3334L34.9998 33.3334C35.4419 33.3334 35.8658 33.1578 36.1783 32.8452C36.4909 32.5326 36.6665 32.1087 36.6665 31.6667C36.6665 31.2247 36.4909 30.8007 36.1783 30.4882C35.8658 30.1756 35.4419 30 34.9998 30L26.3665 30C26.0162 29.0348 25.3771 28.2008 24.5362 27.6114C23.6953 27.0221 22.6934 26.7059 21.6665 26.7059C20.6396 26.7059 19.6377 27.0221 18.7968 27.6114C17.9559 28.2008 17.3168 29.0348 16.9665 30L4.99984 30C4.55781 30 4.13389 30.1756 3.82133 30.4882C3.50877 30.8007 3.33317 31.2247 3.33317 31.6667C3.33317 32.1087 3.50877 32.5326 3.82133 32.8452C4.13389 33.1578 4.55781 33.3334 4.99984 33.3334L16.9665 33.3334C17.3168 34.2986 17.9559 35.1326 18.7968 35.722C19.6377 36.3113 20.6396 36.6275 21.6665 36.6275C22.6934 36.6275 23.6953 36.3113 24.5362 35.722C25.3771 35.1326 26.0162 34.2986 26.3665 33.3334ZM19.9998 31.6667C19.9998 31.3371 20.0976 31.0148 20.2807 30.7407C20.4639 30.4667 20.7242 30.253 21.0287 30.1269C21.3332 30.0007 21.6684 29.9677 21.9917 30.032C22.315 30.0964 22.6119 30.2551 22.845 30.4882C23.0781 30.7213 23.2368 31.0182 23.3011 31.3415C23.3655 31.6648 23.3325 31.9999 23.2063 32.3045C23.0802 32.609 22.8665 32.8693 22.5925 33.0525C22.3184 33.2356 21.9961 33.3334 21.6665 33.3334C21.2245 33.3334 20.8006 33.1578 20.488 32.8452C20.1754 32.5326 19.9998 32.1087 19.9998 31.6667ZM16.3665 21.6667L34.9998 21.6667C35.4419 21.6667 35.8658 21.4911 36.1783 21.1785C36.4909 20.866 36.6665 20.442 36.6665 20C36.6665 19.558 36.4909 19.1341 36.1783 18.8215C35.8658 18.5089 35.4419 18.3334 34.9998 18.3334L16.3665 18.3334C16.0162 17.3681 15.3771 16.5341 14.5362 15.9448C13.6953 15.3554 12.6934 15.0392 11.6665 15.0392C10.6396 15.0392 9.63768 15.3554 8.79678 15.9448C7.95589 16.5341 7.31685 17.3681 6.96651 18.3334L4.99984 18.3334C4.55781 18.3334 4.13389 18.5089 3.82133 18.8215C3.50877 19.1341 3.33317 19.558 3.33317 20C3.33317 20.442 3.50877 20.866 3.82133 21.1785C4.13389 21.4911 4.55781 21.6667 4.99984 21.6667L6.96651 21.6667C7.31685 22.6319 7.95589 23.4659 8.79678 24.0553C9.63768 24.6446 10.6396 24.9608 11.6665 24.9608C12.6934 24.9608 13.6953 24.6446 14.5362 24.0553C15.3771 23.4659 16.0162 22.6319 16.3665 21.6667ZM9.99984 20C9.99984 19.6704 10.0976 19.3482 10.2807 19.0741C10.4639 18.8 10.7242 18.5864 11.0287 18.4602C11.3332 18.3341 11.6684 18.3011 11.9917 18.3654C12.315 18.4297 12.6119 18.5884 12.845 18.8215C13.0781 19.0546 13.2368 19.3516 13.3011 19.6749C13.3655 19.9982 13.3325 20.3333 13.2063 20.6378C13.0802 20.9424 12.8665 21.2027 12.5925 21.3858C12.3184 21.5689 11.9961 21.6667 11.6665 21.6667C11.2245 21.6667 10.8006 21.4911 10.488 21.1785C10.1754 20.866 9.99984 20.442 9.99984 20ZM29.6998 10L34.9998 10C35.4419 10 35.8658 9.82443 36.1784 9.51187C36.4909 9.19931 36.6665 8.77538 36.6665 8.33335C36.6665 7.89133 36.4909 7.4674 36.1784 7.15484C35.8658 6.84228 35.4419 6.66669 34.9998 6.66669L29.6998 6.66669C29.3495 5.70143 28.7105 4.86745 27.8696 4.27809C27.0287 3.68873 26.0267 3.37256 24.9998 3.37256C23.973 3.37256 22.971 3.68873 22.1301 4.27809C21.2892 4.86745 20.6502 5.70143 20.2998 6.66669L4.99984 6.66669C4.55781 6.66669 4.13389 6.84228 3.82133 7.15484C3.50877 7.4674 3.33317 7.89133 3.33317 8.33335C3.33317 8.77538 3.50877 9.1993 3.82133 9.51186C4.13389 9.82442 4.55781 10 4.99984 10L20.2998 10C20.6502 10.9653 21.2892 11.7993 22.1301 12.3886C22.971 12.978 23.973 13.2941 24.9998 13.2941C26.0267 13.2941 27.0287 12.978 27.8696 12.3886C28.7105 11.7993 29.3495 10.9653 29.6998 10ZM23.3332 8.33335C23.3332 8.00372 23.4309 7.68149 23.6141 7.4074C23.7972 7.13332 24.0575 6.9197 24.362 6.79355C24.6666 6.66741 25.0017 6.6344 25.325 6.69871C25.6483 6.76302 25.9453 6.92176 26.1784 7.15484C26.4114 7.38793 26.5702 7.6849 26.6345 8.0082C26.6988 8.33151 26.6658 8.66662 26.5396 8.97116C26.4135 9.2757 26.1999 9.536 25.9258 9.71914C25.6517 9.90227 25.3295 10 24.9998 10C24.5578 10 24.1339 9.82443 23.8213 9.51187C23.5088 9.1993 23.3332 8.77538 23.3332 8.33335Z" fill="white"/>
</svg>
