<svg width="40" height="40" viewBox="0 0 40 40" fill="none" xmlns="http://www.w3.org/2000/svg">
<path d="M16.6665 8.33329C16.3369 8.33329 16.0146 8.43104 15.7406 8.61418C15.4665 8.79731 15.2528 9.05761 15.1267 9.36215C15.0006 9.6667 14.9676 10.0018 15.0319 10.3251C15.0962 10.6484 15.2549 10.9454 15.488 11.1785C15.7211 11.4116 16.0181 11.5703 16.3414 11.6346C16.6647 11.6989 16.9998 11.6659 17.3043 11.5398C17.6089 11.4136 17.8691 11.2 18.0523 10.9259C18.2354 10.6518 18.3332 10.3296 18.3332 9.99996C18.3332 9.55793 18.1576 9.13401 17.845 8.82145C17.5325 8.50889 17.1085 8.33329 16.6665 8.33329ZM9.99984 8.33329C9.6702 8.33329 9.34797 8.43104 9.07389 8.61418C8.7998 8.79731 8.58618 9.05761 8.46004 9.36215C8.33389 9.6667 8.30089 10.0018 8.36519 10.3251C8.4295 10.6484 8.58824 10.9454 8.82133 11.1785C9.05441 11.4116 9.35138 11.5703 9.67469 11.6346C9.99799 11.6989 10.3331 11.6659 10.6376 11.5398C10.9422 11.4136 11.2025 11.2 11.3856 10.9259C11.5688 10.6518 11.6665 10.3296 11.6665 9.99996C11.6665 9.55793 11.4909 9.13401 11.1783 8.82145C10.8658 8.50889 10.4419 8.33329 9.99984 8.33329ZM23.3332 8.33329C23.0035 8.33329 22.6813 8.43104 22.4072 8.61418C22.1331 8.79731 21.9195 9.05761 21.7934 9.36215C21.6672 9.6667 21.6342 10.0018 21.6985 10.3251C21.7628 10.6484 21.9216 10.9454 22.1547 11.1785C22.3877 11.4116 22.6847 11.5703 23.008 11.6346C23.3313 11.6989 23.6664 11.6659 23.971 11.5398C24.2755 11.4136 24.5358 11.2 24.719 10.9259C24.9021 10.6518 24.9998 10.3296 24.9998 9.99996C24.9998 9.55793 24.8242 9.13401 24.5117 8.82145C24.1991 8.50889 23.7752 8.33329 23.3332 8.33329ZM33.3332 1.66663H6.6665C5.34042 1.66663 4.06865 2.19341 3.13097 3.13109C2.19329 4.06877 1.6665 5.34054 1.6665 6.66663V33.3333C1.6665 34.6594 2.19329 35.9311 3.13097 36.8688C4.06865 37.8065 5.34042 38.3333 6.6665 38.3333H33.3332C34.6592 38.3333 35.931 37.8065 36.8687 36.8688C37.8064 35.9311 38.3332 34.6594 38.3332 33.3333V6.66663C38.3332 5.34054 37.8064 4.06877 36.8687 3.13109C35.931 2.19341 34.6592 1.66663 33.3332 1.66663ZM34.9998 33.3333C34.9998 33.7753 34.8242 34.1992 34.5117 34.5118C34.1991 34.8244 33.7752 35 33.3332 35H6.6665C6.22448 35 5.80055 34.8244 5.48799 34.5118C5.17543 34.1992 4.99984 33.7753 4.99984 33.3333V18.3333H34.9998V33.3333ZM34.9998 15H4.99984V6.66663C4.99984 6.2246 5.17543 5.80067 5.48799 5.48811C5.80055 5.17555 6.22448 4.99996 6.6665 4.99996H33.3332C33.7752 4.99996 34.1991 5.17555 34.5117 5.48811C34.8242 5.80067 34.9998 6.2246 34.9998 6.66663V15Z" fill="white"/>
</svg>
